<svg width="415" height="437" fill="none" xmlns="http://www.w3.org/2000/svg"><path d="M379.331 31.643c-10.763-11.61-26.405-18.225-42.211-19.11-15.807-.883-31.682 3.729-45.263 11.865-5.898 3.912-2.93 8.25 9.983 4.218 7.174-2.205 10.872-2.835 16.343-2.873 3.789-.026 4.92 5.266 1.408 6.686a4.435 4.435 0 01-.272.1 165.192 165.192 0 01-47.387 8.536c-3.564.113-7.425.2-9.88 3.267-1.181 1.474-1.376 3.56-.334 5.136 1.241 1.878 3.531 1.943 5.574 1.845 16.272-.792 31.921-6.623 48.142-8.115 21.333-1.963 43.264 4.02 60.788 16.308 2.837 3.772 5.571 7.628 8.282 11.457l8.016 4.505c3.019-15.542-2.428-32.215-13.189-43.825z" fill="url(#paint0_linear)"/><path d="M265.805 183.799c15.535 9.79 36.135 12.55 52.688 4.605 1.005-.482 2.023-1.002 3.133-1.102 1.109-.098 2.348.341 2.841 1.338.482.979.101 2.21-.641 3.011-.742.802-1.771 1.265-2.78 1.68-17.615 7.277-38.26 6.843-55.553-1.169" fill="url(#paint1_linear)"/><path d="M269.167 180.235c5.209 3.278 10.536 4.676 16.725 5.118 1.718.121 3.811.026 5.073-1.32.336-.358.582-.78.742-1.231.644-1.825-.296-3.822-2.045-4.65-6.23-2.954-14.754-11.784-17.985-14.411-2.278-1.854-.107 2.193-1.758-.157-1.432-2.038-3.322-4.698-5.917-5.292-3.312-.757-5.111 2.82-5.633 5.499-1.329 6.814 5.688 13.225 10.798 16.444z" fill="url(#paint2_linear)"/><path d="M386.482 108.345c-2.723 20.144-11.751 39.389-25.501 54.36-1.575 1.716-3.476 3.496-5.805 3.505-3.669.015-5.85-4.585-4.977-8.15.874-3.564 3.648-6.284 6.041-9.069 6.819-7.935 11.267-17.884 12.634-28.258.384-2.923-.458-7.01-3.407-6.962-4.775.078-2.873 10.004-7.556 10.932-2.174.432-4.109-1.811-4.3-4.018-.188-2.207.795-4.321 1.601-6.382 5.044-12.908 3.405-28.225-4.256-39.773l35.526 33.815z" fill="url(#paint3_linear)"/><path d="M61.298 166.191a62.628 62.628 0 00-20.423 22.499c-.902 1.687-2.31 3.715-4.173 3.281-1.14-.265-1.875-1.463-1.964-2.632-.085-1.169.337-2.309.8-3.388a40.573 40.573 0 0111.5-15.274l14.26-4.486z" fill="url(#paint4_linear)"/><path d="M36.459 150.168c-18.97 14.725-31.945 36.969-35.383 60.74-.124.852.181 1.732.852 2.271 1.736 1.401 3.848-1.05 4.447-3.128 1.011-3.505 1.35-7.207 2.72-10.588.642-1.582 1.589-3.119 2.787-4.345 1.345-1.377 3.585.177 2.803 1.937-5.003 11.257-7.611 23.575-7.568 35.894.005 1.286.083 2.701 1.288 3.483 1.1.714 2.541.53 3.55-.305 1.974-1.637 2.06-4.192 2.188-6.552 1.334-24.813 14.595-48.717 34.942-62.98l-12.626-16.427z" fill="url(#paint5_linear)"/><path d="M91.356 90.475c15.592 3.567 31.043-6.084 42.996-16.71 11.953-10.628 23.396-23.17 38.845-27.317 3.607-.969 8.825-.396 9.24 3.314.389 3.471-3.901 5.292-7.265 6.225a74.97 74.97 0 00-32.095 18.424c-3.106 3.023-5.776 8.625-2.209 11.09 5.02 3.468 10.992-6.538 16.193-6.567a2.055 2.055 0 011.985 2.601c-1.496 5.368-6.549 9.372-11.789 11.622-5.814 2.498-12.201 3.533-17.88 6.325-9.068 4.459-15.396 12.874-22.53 20.032-7.133 7.157-16.541 13.587-26.552 12.194" fill="url(#paint6_linear)"/><path d="M374.724 165.154l.074 1.77c.243-.577.262-1.21-.074-1.77z" fill="url(#paint7_linear)"/><path d="M158.609 222.916l-15.51 10.887c-1.422.997-2.894 2.018-4.591 2.386-1.696.367-3.696-.084-4.659-1.529-.881-1.322-.676-3.133.066-4.538.742-1.406 1.935-2.506 3.059-3.627a56.246 56.246 0 0011.292-16.155l10.343 12.576z" fill="url(#paint8_linear)"/><path d="M164.238 221.129c-10.61 11.665-21.321 23.423-34.128 32.623-1.823 1.309-3.808 2.61-6.048 2.753-2.241.143-4.739-1.324-4.918-3.562-.267-3.369 3.968-5.202 3.636-8.618-.374-3.851-5.995-6.969-9.543-7.144-8.139-.4-18.243 9.41-24.12 14.13-2.564 2.059-5.263 4.585-5.425 7.868-.77 15.504 20.173-7.257 16.494 10.847-.98 4.824 3.032 9.636 7.795 10.887 4.759 1.25 9.849-.32 14.131-2.742 4.285-2.421 8.043-5.678 12.259-8.219 2.677-1.615 6.525-2.773 8.601-.437 2.522 2.837-.372 7.043-2.531 10.164-4.245 6.137-5.638 14.163-3.71 21.371.658 2.459 1.777 4.955 4.192 6.129 1.214.589 2.643.666 3.839.038 2.45-1.286 2.424-4.354 1.744-6.79-1.081-6.33 3.76-6.017 3.91-3.173.668 12.466 9.794 21.108 22.02 24.006l-8.198-100.131z" fill="url(#paint9_linear)"/><path d="M316.627 320.008v-21.657c0-11.221-7.079-25.909-13.361-35.206a56.244 56.244 0 01-9.641-31.485v-29.086a7.7 7.7 0 00-7.699-7.699h-2.453c-7.9 0-14.303 6.403-14.303 14.303v103.099h-.003l-93.835 26.749 10.243 28.392a49.653 49.653 0 0011.863 18.531c.138.136.279.27.417.408a49.204 49.204 0 004.423 3.787c.156.114.311.233.466.35.47.351.947.69 1.426 1.019.485.332.974.654 1.468.971.331.21.663.415 1 .618a49.263 49.263 0 003.089 1.72l12.886 41.319h92.308l-15.179-61.212c.048-.055 16.885-15.8 16.885-54.921z" fill="url(#paint10_linear)"/><path d="M285.78 366.633l-18.748 8.811c-13.939 6.549-21.17 22.148-17.162 37.017l6.382 23.673h-33.643l-12.886-41.319a49.007 49.007 0 01-3.09-1.72 53.67 53.67 0 01-1-.618 54.7 54.7 0 01-1.467-.971 55.805 55.805 0 01-1.427-1.019l-.465-.351a50.392 50.392 0 01-4.424-3.786c-.138-.136-.279-.27-.417-.408a49.665 49.665 0 01-11.863-18.531l-10.243-28.393 93.835-26.748V209.173c0-6.346 4.135-11.729 9.859-13.597l.002 136.896v22.095a14.165 14.165 0 006.757 12.066z" fill="url(#paint11_linear)"/><path d="M199.17 246.508l21.425-17.26-49.381-61.303c-4.767-5.917-13.425-6.85-19.342-2.083-5.917 4.767-6.85 13.426-2.083 19.343l49.381 61.303z" fill="url(#paint12_linear)"/><path d="M165.502 188.089l-11.987 9.477c-.749.592-1.527 1.2-2.45 1.441-.923.243-2.04.021-2.572-.773-.697-1.04-.098-2.458.683-3.436 2.152-2.691 5.585-4.225 7.413-7.148 1.092-1.749 1.5-3.829 2.35-5.707 1.484-3.283 4.385-5.898 7.806-7.034l-1.243 13.18z" fill="url(#paint13_linear)"/><path d="M172.166 359.189h91.268a9.484 9.484 0 009.484-9.484V140.956a9.483 9.483 0 00-9.484-9.484h-91.268a9.484 9.484 0 00-9.484 9.484v208.747c-.002 5.239 4.245 9.486 9.484 9.486z" fill="#24292E"/><path d="M238.375 352.155h-41.15v1.563h41.15v-1.563zm.47-214.762h-40.496v1.563h40.496v-1.563z" fill="#606060"/><path d="M267.13 147.932h-98.664V345.69h98.664V147.932z" fill="#fff"/><path d="M267.132 161.019c-6.351-2.883-13.745-3.973-20.643-3.071-14.58 1.909-27.314 10.519-39.145 19.254-3.317 2.448-7.637 5.032-11.269 3.078-4.607-2.479-3.202-9.804.558-13.442 3.761-3.639 9.038-5.595 12.247-9.728.79-1.016 1.458-2.328 1.06-3.552-.871-2.663-4.86-1.677-7.232-.189-8.852 5.557-17.701 11.116-26.553 16.673-2.455 1.541-4.981 3.106-7.689 4.078v13.136c1.243-1.317 2.366-2.763 3.827-3.827 2.008-1.465 5.151-1.949 6.778-.071 2.121 2.445-.041 6.131-.16 9.367-.231 6.258 7.957 9.887 13.893 7.892 5.936-1.994 9.992-7.31 14.122-12.015 6.707-7.64 14.719-14.435 24.248-17.971 9.532-3.533 20.755-3.438 29.38 1.947 2.536 1.584 4.767 3.672 6.576 6.075v-17.634h.002z" fill="url(#paint14_linear)"/><path d="M264.927 288.454a60.323 60.323 0 01-9.252 10.276c-7.497 6.619-16.632 11.317-26.438 13.345-9.899 2.042-20.221 1.302-29.876-1.575-8.203-2.443-15.11-7.167-20.362-13.943-5.046-6.521-8.336-14.37-9.853-22.447a52.749 52.749 0 01-.68-4.881v53.95c2.295 2.925 5.249 5.375 8.31 7.401 3.614 2.39 7.558 4.535 11.435 6.458 3.875 1.921 8.234 3.749 12.648 3.543 3.841-.181 7.943-2.455 6.969-6.892-.907-3.348-4.111-6.175-9.419-9.62-1.198-.776-1.387-2.477-.346-3.462l.026-.024c.914-.864 2.488-1.131 3.767-1.234 6.79-.544 13.29 2.513 20.03 1.601 4.767-.644 9.474-1.968 14.299-2.133 1.581-.055 3.71-.114 5.012.957 1.367 1.126 1.193 3.381.561 4.896-.484 1.155-3.166 6.303-3.517 7.265-1.162 3.171-.961 6.971 2.267 8.823 3.526 2.018 7.446-.222 10.574-1.947 3.825-2.116 7.236-4.829 10.298-7.945 2.109-2.15 4.072-4.421 5.757-6.888v-38.792a82.238 82.238 0 01-2.21 3.268z" fill="url(#paint15_linear)"/><path d="M267.131 147.932v13.087c-6.351-2.882-13.742-3.973-20.645-3.071-14.58 1.909-27.313 10.52-39.143 19.254-3.316 2.451-7.637 5.032-11.268 3.078-4.608-2.479-3.202-9.804.56-13.442 3.76-3.641 9.036-5.597 12.245-9.73.792-1.016 1.46-2.328 1.059-3.552-.871-2.663-4.86-1.678-7.232-.189-8.851 5.557-17.703 11.114-26.552 16.675-2.453 1.542-4.982 3.104-7.688 4.075v-26.185h98.664z" fill="url(#paint16_linear)"/><path d="M267.132 323.978v21.712h-98.666v-22.514c2.295 2.925 5.249 5.376 8.31 7.401 3.614 2.391 7.558 4.536 11.435 6.459 3.875 1.921 8.234 3.748 12.648 3.543 3.841-.181 7.943-2.455 6.969-6.893-.907-3.347-4.111-6.175-9.419-9.62-1.198-.775-1.387-2.476-.346-3.462.007-.007.019-.016.026-.024.914-.863 2.488-1.13 3.767-1.233 6.79-.544 13.29 2.512 20.03 1.601 4.767-.644 9.474-1.969 14.299-2.133 1.581-.055 3.71-.115 5.012.957 1.367 1.126 1.193 3.38.561 4.895-.484 1.155-3.166 6.304-3.517 7.266-1.162 3.17-.961 6.971 2.267 8.823 3.526 2.018 7.446-.222 10.574-1.947 3.825-2.117 7.236-4.829 10.298-7.945 2.102-2.148 4.068-4.419 5.752-6.886z" fill="url(#paint17_linear)"/><path d="M173.335 236.95c1.05-2.214 2.267-4.34 3.419-6.499 2.147-4.014 4.175-8.237 4.211-12.884.022-2.35-.532-5.45-3.283-5.946-2.402-.434-4.807 1.291-6.582 2.684a29.993 29.993 0 00-2.634 2.331v41.197c.396-4.619 1.238-9.2 2.383-13.602.651-2.49 1.379-4.948 2.486-7.281z" fill="url(#paint18_linear)"/><path d="M262.635 190.916a21.577 21.577 0 014.497 2.043v-8.108c-7.554-7.093-19.65-10.178-29.44-8.453-9.29 1.634-17.386 7.516-23.968 14.005-3.088 3.047-5.793 6.375-8.549 9.713-2.159 2.615-4.397 5.187-6.177 8.089-1.632 2.662-3.307 6.174-2.236 9.35 1.067 3.156 4.603 5.459 7.879 4.311 3.249-1.135 5.513-4.306 7.415-7 2.36-3.338 4.767-6.568 7.857-9.281 3.202-2.808 8.598-6.836 12.557-8.344 2.627-.799 5.065.571 1.121 3.419-2.178 2.064-4.743 4.128-3.309 7.459 1.751 4.072 5.972 3.839 9.565 2.686 4.235-1.36 8.84-2.701 13.046-.458 3.6 1.916 6.311 5.614 8.281 9.09 3.687 6.504 5.593 14.127 5.956 21.621v-26.509a75.606 75.606 0 00-9.141-13.275c-1.112-1.294-2.283-2.577-2.975-4.135-.692-1.558-.821-3.484.138-4.896 1.53-2.25 4.891-2.159 7.483-1.327z" fill="url(#paint19_linear)"/><path d="M215.558 287.956c-15.871-2.518-26.698-17.422-24.181-33.291a28.97 28.97 0 019.31-17.102c6.296-5.643 14.984-8.506 23.983-7.079 15.871 2.517 26.696 17.422 24.179 33.293a28.96 28.96 0 01-5.96 13.556c-6.318 7.929-16.604 12.324-27.331 10.623z" fill="#FFD23D"/><path d="M220.096 285.491c-1.36 0-2.729-.105-4.096-.322-6.931-1.1-13.02-4.832-17.145-10.51-4.125-5.679-5.791-12.622-4.691-19.555a26.329 26.329 0 018.406-15.444 26.179 26.179 0 0121.656-6.392c6.931 1.1 13.02 4.832 17.143 10.51 4.123 5.678 5.791 12.624 4.691 19.555a26.287 26.287 0 01-5.383 12.244 26.347 26.347 0 01-20.581 9.914zm-3.848-1.88c8.77 1.39 17.658-2.064 23.2-9.017a24.696 24.696 0 005.059-11.507c1.033-6.516-.533-13.044-4.41-18.381-3.877-5.337-9.598-8.847-16.114-9.88a24.614 24.614 0 00-20.359 6.008 24.747 24.747 0 00-7.902 14.518c-1.033 6.516.534 13.044 4.409 18.381s9.601 8.844 16.117 9.878z" fill="#F66A0A"/><path d="M219.994 246.808c0 6.855-5.557 12.409-12.409 12.409 6.854 0 12.409 5.557 12.409 12.409 0-6.854 5.557-12.409 12.409-12.409-6.852.003-12.409-5.554-12.409-12.409z" fill="#fff"/><path d="M177.021 239.489a9.178 9.178 0 002.291-11.973l-13.974-23.468c-4.283-5.315-12.063-6.153-17.379-1.872-6.347 4.917-6.781 14.346-.912 19.824l18.119 16.918a9.173 9.173 0 0011.855.571z" fill="url(#paint20_linear)"/><path d="M172.371 293.868c4.295-5.349 4.152-12.593-.317-16.179l-5.753-4.287c-4.468-3.586-11.571-2.16-15.863 3.19-4.295 5.349-4.152 12.592.317 16.178l5.752 4.288c4.469 3.588 11.572 2.159 15.864-3.19z" fill="url(#paint21_linear)"/><path d="M173.073 266.666c4.294-5.349 4.151-12.593-.318-16.179l-5.752-4.287c-4.469-3.586-11.572-2.159-15.864 3.19-4.294 5.349-4.151 12.593.317 16.179l5.753 4.287c4.466 3.589 11.569 2.159 15.864-3.19z" fill="url(#paint22_linear)"/><path d="M279.026 241.299c0 3.336 1.748 8.134 4.669 8.134 0 0-4.669 2.503-4.669 6.466l-3.255-9.088 3.255-5.512z" fill="url(#paint23_linear)"/><path d="M283.471 194.872c-2.136 0-4.448 3.767-4.448 7.778v-7.072s1.995-.706 4.448-.706z" fill="#CED2D5"/><path d="M332.696 54.126a6.633 6.633 0 01-1.131-4.905l7.029-42.808.003-.015a4.464 4.464 0 011.854-3.03l3.934-2.786.456-.322-1.441 7.296 57.648 81.373-5.898 41.646 3.975 1.014-1.735 1.229a7.297 7.297 0 01-10.169-1.735l-54.525-76.957z" fill="#24292E"/><path d="M406.165 87.812l-5.943 41.966c-.339 2.388-3.421 3.135-4.817 1.167l-56.353-79.544a6.764 6.764 0 01-1.178-4.862l6.425-45.38c.172-1.205 1.727-1.584 2.431-.59l58.199 82.152a7.087 7.087 0 011.236 5.091z" fill="#606060"/><path d="M73.254 165.516a7.134 7.134 0 01-4.142 3.271l-43.693 13.137-.014.005a4.761 4.761 0 01-3.696-.308l-4.397-2.314 7.048-2.284 51.35-89.712 42.09-13.638-.816-4.084 1.94 1.021c3.674 1.935 4.97 6.44 2.896 10.064l-48.567 84.842z" fill="#24292E"/><path d="M72.364 83.15l42.412-13.743c2.414-.782 4.499 1.687 3.256 3.858l-50.197 87.696a7.282 7.282 0 01-4.08 3.295l-45.861 14.86c-1.22.393-2.271-.852-1.644-1.947L68.09 86.6a7.635 7.635 0 014.274-3.45z" fill="#606060"/><path d="M122.78 233.958c1.174.153 2.362-.195 3.436-.692a12.782 12.782 0 005.192-4.409c3.574-5.275-1.902-8.451-6.046-4.702-2.057 1.861-9.119 8.947-2.582 9.803z" fill="url(#paint24_linear)"/><path d="M58.268 291.422c-11.152 2.167-25.28-10.025-13.328-24.603 8.51-10.424 8.754-3.266 8.294 5.318.203 5.376 1.026 7.618 8.696 8.716 7.671 1.097 7.49 8.403-3.662 10.569z" fill="url(#paint25_linear)"/><path d="M45.055 157.509c-2.305.499-5.134-.51-5.8-2.772-.704-2.393 1.198-4.696 2.951-6.468l7.482-7.569c.857-.866 1.778-2.087 1.23-3.173-.788-1.558-3.153-.618-4.5.489l-10.308 8.458-14.143 24.702 43.817-14.158 10.48-18.31a117.218 117.218 0 00-25.156 15.263c-1.849 1.467-3.748 3.039-6.053 3.538z" fill="url(#paint26_linear)"/><path d="M77.102 132.075c-1.589-2.214-1-5.404.53-7.658 1.532-2.257 3.82-3.858 5.874-5.653 2.376-2.078 4.529-4.547 5.58-7.522 1.055-2.978.845-6.533-1.125-9-.587-.732-1.348-1.441-1.41-2.376-.096-1.413 1.395-2.346 2.679-2.945l14.962-7 8.551-14.938-43.817 14.158-32.818 57.333 10.307-8.458c1.348-1.107 3.712-2.045 4.5-.489.549 1.086-.375 2.31-1.229 3.173l-7.482 7.568c-1.754 1.773-3.655 4.078-2.952 6.469.666 2.264 3.496 3.271 5.8 2.772 2.305-.499 4.205-2.071 6.051-3.538a117.218 117.218 0 0125.157-15.263l2.975-5.199c-.844-.241-1.62-.723-2.133-1.434z" fill="#fff"/><path d="M89.23 96.917c-1.281.599-2.775 1.532-2.68 2.944.063.935.826 1.644 1.41 2.377 1.971 2.467 2.181 6.022 1.127 8.999-1.055 2.978-3.205 5.445-5.58 7.523-2.053 1.794-4.343 3.397-5.875 5.652-1.532 2.257-2.119 5.445-.53 7.659.51.713 1.289 1.193 2.136 1.434l24.954-43.588-14.962 7z" fill="url(#paint27_linear)"/><path d="M111.858 287.006c-2.505-1.374-5.817.396-8.117 1.441-.298.136-1.522.768-1.954.909-1.556.508-3.877 1.747-5.058 3.202-1.246 2.336 1.86 4.283 6.38 4.273 2.743.122 5.857-.918 8.085-2.491 1.267-.894 2.439-2.128 2.489-3.769.043-1.403-.556-2.868-1.825-3.565z" fill="url(#paint28_linear)"/><path d="M349.741 192.637c-.849-1.523-3.512-2.305-6.912-1.582-2.815.599-5.409 1.982-7.048 3.447-1.324.914-3.001 1.759-4.478 2.582-2.317 1.288-4.676 2.589-6.642 4.032-1.594 1.172-2.775 2.481-2.233 3.646.553 1.186 2.545 1.617 4.965 1.403 2.445-.217 4.981-.921 7.327-1.67 2.016-.645 4.003-1.394 5.781-2.281 4.681-2.346 10.865-6.655 9.24-9.577z" fill="url(#paint29_linear)"/><path d="M361.571 69.112c1.963-1.709 5.251-.49 6.682 1.684 1.434 2.174 1.599 4.908 1.974 7.485.374 2.576 1.154 5.354 3.304 6.823 3.011 2.06 7.528.323 9.281-2.877 1.754-3.2 1.258-7.222-.21-10.562-1.467-3.34-3.798-6.213-5.786-9.274-5.303-8.167-8.176-17.885-8.217-27.62l-18.994-26.81-6.172 43.338 16.448 23.22c.012-.19.027-.378.039-.566.119-1.75.329-3.691 1.651-4.841zm40.001 18.538l.752-5.278-10.262-14.484c.174 5.9.955 12.034 5.046 16.124 1.332 1.333 2.995 2.428 4.464 3.638z" fill="#fff"/><path d="M397.109 84.014c-4.095-4.092-4.872-10.226-5.047-16.124l-23.463-33.12c.041 9.735 2.914 19.453 8.217 27.62 1.988 3.06 4.319 5.933 5.786 9.273 1.468 3.34 1.964 7.363.21 10.563-1.753 3.2-6.27 4.936-9.281 2.877-2.15-1.47-2.93-4.247-3.304-6.823-.375-2.577-.54-5.312-1.974-7.485-1.433-2.174-4.719-3.393-6.682-1.684-1.322 1.15-1.532 3.092-1.651 4.84-.012.189-.027.377-.039.566l28.557 40.312c1.196-3.142 3.123-6.003 5.66-8.21 1.667-1.448 3.557-2.624 5.332-3.939l2.14-15.031c-1.467-1.21-3.13-2.305-4.461-3.636z" fill="url(#paint30_linear)"/><path d="M388.438 114.828l7.711 10.884 3.281-23.031c-1.773 1.315-3.665 2.489-5.333 3.939-2.536 2.207-4.464 5.068-5.659 8.208z" fill="#fff"/><path d="M49.283 143.821c-1.31.897-2.665 1.852-3.412 3.252-.747 1.401-.659 3.383.623 4.319 1.178.859 2.889.517 4.08-.322 1.19-.84 2.023-2.083 2.984-3.178 2.055-2.339 4.727-4.028 7.318-5.758.961-.641 1.928-1.302 2.677-2.183.749-.88 1.264-2.018 1.16-3.17-.42-4.686-3.873-1.17-5.276.121-2.906 2.675-6.89 4.679-10.154 6.919z" fill="url(#paint31_linear)"/><path d="M46.138 226.827c-.51 0-1.01-.203-1.379-.578l-15.974-16.286a1.932 1.932 0 01.885-3.219l19.21-5.077a1.93 1.93 0 012.402 2.155l-3.235 21.363a1.926 1.926 0 01-1.315 1.546 1.882 1.882 0 01-.594.096zm-12.273-17.198l10.944 11.156 2.217-14.635-13.16 3.479z" fill="url(#paint32_linear)"/><path d="M378.353 185.181a1.184 1.184 0 01-.89-1.962l13.096-14.94c.315-.36.818-.494 1.272-.339l18.068 6.165a1.183 1.183 0 01-.062 2.26l-31.162 8.775a1.366 1.366 0 01-.322.041zm13.463-14.75l-9.944 11.347 23.666-6.663-13.722-4.684zM104.013 53.195a2.87 2.87 0 01.887-3.96c5.347-3.388 9.818-2.587 13.412-1.943 3.275.587 5.864 1.053 9.326-1.14 3.462-2.193 4.147-4.731 5.015-7.945.952-3.524 2.136-7.91 7.485-11.297 5.347-3.388 9.818-2.587 13.411-1.94 3.276.59 5.864 1.052 9.324-1.14 3.46-2.193 4.147-4.732 5.013-7.945.952-3.524 2.135-7.91 7.482-11.298s9.818-2.586 13.411-1.94c3.276.59 5.865 1.053 9.324-1.14a2.87 2.87 0 113.073 4.848c-5.347 3.388-9.818 2.587-13.411 1.94-3.276-.59-5.864-1.052-9.324 1.14-3.46 2.193-4.147 4.732-5.013 7.946-.952 3.523-2.135 7.909-7.482 11.297-5.347 3.388-9.818 2.586-13.411 1.94-3.276-.59-5.865-1.053-9.324 1.14-3.462 2.193-4.147 4.731-5.015 7.945-.952 3.524-2.136 7.91-7.485 11.297-5.347 3.388-9.818 2.587-13.411 1.942-3.276-.587-5.865-1.052-9.327 1.14a2.871 2.871 0 01-3.96-.887z" fill="#82FDB8"/><path d="M214.685 74.334c3.34 3.808 5.581-17.681-3.481-17.276-9.062.406-19.278 10.703-9.956 8.647 7.883-1.74 8.102 2.55 13.437 8.63z" fill="#86E29B"/><path d="M252.549 38.217a10.38 10.38 0 01-5.42-1.527c-4.903-3-6.454-9.427-3.455-14.332 2.999-4.903 9.427-6.454 14.332-3.455 4.903 2.999 6.454 9.427 3.455 14.332a10.432 10.432 0 01-8.912 4.982zm.031-17.938a7.52 7.52 0 00-6.425 3.594c-2.161 3.536-1.045 8.174 2.493 10.335 3.539 2.162 8.175 1.045 10.336-2.493 2.162-3.536 1.045-8.174-2.493-10.336a7.51 7.51 0 00-3.911-1.1z" fill="#FFB0EB"/><path d="M7.52 141.953a7.484 7.484 0 01-3.918-1.105c-3.545-2.166-4.664-6.814-2.498-10.359 2.167-3.546 6.814-4.665 10.36-2.498a7.482 7.482 0 013.395 4.662 7.485 7.485 0 01-.897 5.697 7.536 7.536 0 01-6.442 3.603zm.022-12.965A5.432 5.432 0 004.7 139.054a5.438 5.438 0 007.468-1.801 5.404 5.404 0 00.646-4.106 5.398 5.398 0 00-2.448-3.362 5.404 5.404 0 00-2.824-.797z" fill="#FFD23D"/><path d="M411.336 56.807a2.915 2.915 0 100-5.83 2.915 2.915 0 000 5.83z" fill="url(#paint33_linear)"/><path d="M49.371 94.25a2.916 2.916 0 100-5.832 2.916 2.916 0 000 5.831z" fill="url(#paint34_linear)"/><path d="M76.263 243.979a2.916 2.916 0 10-.002-5.832 2.916 2.916 0 00.002 5.832z" fill="url(#paint35_linear)"/><path d="M190.919 53.892a2.916 2.916 0 100-5.832 2.916 2.916 0 000 5.832z" fill="url(#paint36_linear)"/><path d="M372.021 177.827a2.915 2.915 0 100-5.83 2.915 2.915 0 000 5.83z" fill="url(#paint37_linear)"/><path d="M329.242 181.015a1.57 1.57 0 01-.687-.157l-12.615-6.108a1.579 1.579 0 01.186-2.918l17.372-5.8a1.578 1.578 0 011.646.412c.423.447.547 1.098.318 1.668l-4.755 11.908a1.577 1.577 0 01-.895.885c-.184.074-.377.11-.57.11zm-8.439-7.418l7.601 3.682 2.866-7.177-10.467 3.495z" fill="url(#paint38_linear)"/><path d="M315.63 54.634c15.298-1.947 17.451 5.33 5.411 17.057-12.039 11.727-12.96 3.29-10.319-3.83 2.641-7.119-1.302-7.19-6.699-5.84-5.402 1.35-4.483-3.305 11.607-7.387z" fill="#75C4FD"/><defs><linearGradient id="paint0_linear" x1="261.041" y1="43.946" x2="393.346" y2="43.946" gradientUnits="userSpaceOnUse"><stop stop-color="#FFE466"/><stop offset="1" stop-color="#FFAFEA"/></linearGradient><linearGradient id="paint1_linear" x1="265.491" y1="191.15" x2="324.68" y2="191.15" gradientUnits="userSpaceOnUse"><stop stop-color="#FFE466"/><stop offset="1" stop-color="#FFAFEA"/></linearGradient><linearGradient id="paint2_linear" x1="261.039" y1="176.115" x2="287.852" y2="167.858" gradientUnits="userSpaceOnUse"><stop stop-color="#FFE466"/><stop offset="1" stop-color="#FFAFEA"/></linearGradient><linearGradient id="paint3_linear" x1="350.006" y1="120.37" x2="386.482" y2="120.37" gradientUnits="userSpaceOnUse"><stop stop-color="#FFE466"/><stop offset="1" stop-color="#FFAFEA"/></linearGradient><linearGradient id="paint4_linear" x1="34.73" y1="179.11" x2="61.299" y2="179.11" gradientUnits="userSpaceOnUse"><stop stop-color="#75C3FC"/><stop offset=".093" stop-color="#81C2F6"/><stop offset="1" stop-color="#F0B8BD"/></linearGradient><linearGradient id="paint5_linear" x1="1.049" y1="193.522" x2="49.085" y2="193.522" gradientUnits="userSpaceOnUse"><stop stop-color="#75C3FC"/><stop offset=".093" stop-color="#81C2F6"/><stop offset="1" stop-color="#F0B8BD"/></linearGradient><linearGradient id="paint6_linear" x1="80.294" y1="88.967" x2="182.46" y2="88.967" gradientUnits="userSpaceOnUse"><stop stop-color="#75C3FC"/><stop offset=".093" stop-color="#81C2F6"/><stop offset="1" stop-color="#F0B8BD"/></linearGradient><linearGradient id="paint7_linear" x1="389.826" y1="166.038" x2="312.971" y2="166.038" gradientUnits="userSpaceOnUse"><stop stop-color="#FFE466"/><stop offset="1" stop-color="#FFAFEA"/></linearGradient><linearGradient id="paint8_linear" x1="182.049" y1="188.92" x2="102.175" y2="266.277" gradientUnits="userSpaceOnUse"><stop stop-color="#FFE466"/><stop offset="1" stop-color="#FFAFEA"/></linearGradient><linearGradient id="paint9_linear" x1="158.296" y1="271.197" x2="72.767" y2="271.197" gradientUnits="userSpaceOnUse"><stop stop-color="#FFE466"/><stop offset="1" stop-color="#FFAFEA"/></linearGradient><linearGradient id="paint10_linear" x1="245.978" y1="297.462" x2="245.978" y2="452.897" gradientUnits="userSpaceOnUse"><stop stop-color="#CFD3D6"/><stop offset=".635" stop-color="#F3F4F5"/><stop offset="1" stop-color="#fff" stop-opacity="0"/></linearGradient><linearGradient id="paint11_linear" x1="230.555" y1="302.943" x2="230.555" y2="427.912" gradientUnits="userSpaceOnUse"><stop stop-color="#BBC0C5"/><stop offset=".569" stop-color="#CFD3D6"/><stop offset=".999" stop-color="#fff" stop-opacity="0"/></linearGradient><linearGradient id="paint12_linear" x1="183.671" y1="161.801" x2="183.671" y2="300.467" gradientUnits="userSpaceOnUse"><stop stop-color="#BBC0C5"/><stop offset=".569" stop-color="#CFD3D6"/><stop offset=".999" stop-color="#fff" stop-opacity="0"/></linearGradient><linearGradient id="paint13_linear" x1="170.187" y1="176.672" x2="90.314" y2="254.03" gradientUnits="userSpaceOnUse"><stop stop-color="#FFE466"/><stop offset="1" stop-color="#FFAFEA"/></linearGradient><linearGradient id="paint14_linear" x1="168.465" y1="176.526" x2="267.132" y2="176.526" gradientUnits="userSpaceOnUse"><stop stop-color="#FFE466"/><stop offset="1" stop-color="#FFAFEA"/></linearGradient><linearGradient id="paint15_linear" x1="168.467" y1="305.392" x2="267.131" y2="305.392" gradientUnits="userSpaceOnUse"><stop stop-color="#FFE466"/><stop offset="1" stop-color="#FFAFEA"/></linearGradient><linearGradient id="paint16_linear" x1="270.806" y1="164.449" x2="165.433" y2="164.449" gradientUnits="userSpaceOnUse"><stop stop-color="#75C3FC"/><stop offset=".093" stop-color="#81C2F6"/><stop offset="1" stop-color="#F0B8BD"/></linearGradient><linearGradient id="paint17_linear" x1="270.807" y1="332.241" x2="165.433" y2="332.241" gradientUnits="userSpaceOnUse"><stop stop-color="#75C3FC"/><stop offset=".093" stop-color="#81C2F6"/><stop offset="1" stop-color="#F0B8BD"/></linearGradient><linearGradient id="paint18_linear" x1="173.893" y1="234.694" x2="245.892" y2="234.694" gradientUnits="userSpaceOnUse"><stop stop-color="#FFE466"/><stop offset="1" stop-color="#FFAFEA"/></linearGradient><linearGradient id="paint19_linear" x1="196.422" y1="208.496" x2="267.131" y2="208.496" gradientUnits="userSpaceOnUse"><stop stop-color="#FFE466"/><stop offset="1" stop-color="#FFAFEA"/></linearGradient><linearGradient id="paint20_linear" x1="161.756" y1="297.462" x2="161.756" y2="452.898" gradientUnits="userSpaceOnUse"><stop stop-color="#CFD3D6"/><stop offset=".635" stop-color="#F3F4F5"/><stop offset="1" stop-color="#fff" stop-opacity="0"/></linearGradient><linearGradient id="paint21_linear" x1="161.406" y1="297.462" x2="161.406" y2="452.898" gradientUnits="userSpaceOnUse"><stop stop-color="#CFD3D6"/><stop offset=".635" stop-color="#F3F4F5"/><stop offset="1" stop-color="#fff" stop-opacity="0"/></linearGradient><linearGradient id="paint22_linear" x1="162.106" y1="297.462" x2="162.106" y2="452.897" gradientUnits="userSpaceOnUse"><stop stop-color="#CFD3D6"/><stop offset=".635" stop-color="#F3F4F5"/><stop offset="1" stop-color="#fff" stop-opacity="0"/></linearGradient><linearGradient id="paint23_linear" x1="279.732" y1="302.943" x2="279.732" y2="427.913" gradientUnits="userSpaceOnUse"><stop stop-color="#BBC0C5"/><stop offset=".569" stop-color="#CFD3D6"/><stop offset=".999" stop-color="#fff" stop-opacity="0"/></linearGradient><linearGradient id="paint24_linear" x1="174.947" y1="181.586" x2="95.073" y2="258.944" gradientUnits="userSpaceOnUse"><stop stop-color="#FFE466"/><stop offset="1" stop-color="#FFAFEA"/></linearGradient><linearGradient id="paint25_linear" x1="96.743" y1="276.658" x2="60.516" y2="276.658" gradientUnits="userSpaceOnUse"><stop stop-color="#FFE466"/><stop offset="1" stop-color="#FFAFEA"/></linearGradient><linearGradient id="paint26_linear" x1="21.967" y1="153.939" x2="76.263" y2="153.939" gradientUnits="userSpaceOnUse"><stop stop-color="#75C3FC"/><stop offset=".093" stop-color="#81C2F6"/><stop offset="1" stop-color="#F0B8BD"/></linearGradient><linearGradient id="paint27_linear" x1="76.162" y1="111.713" x2="104.191" y2="111.713" gradientUnits="userSpaceOnUse"><stop stop-color="#75C3FC"/><stop offset=".093" stop-color="#81C2F6"/><stop offset="1" stop-color="#F0B8BD"/></linearGradient><linearGradient id="paint28_linear" x1="113.686" y1="291.673" x2="96.453" y2="291.673" gradientUnits="userSpaceOnUse"><stop stop-color="#FFE466"/><stop offset="1" stop-color="#FFAFEA"/></linearGradient><linearGradient id="paint29_linear" x1="350.419" y1="195.211" x2="321.713" y2="201.781" gradientUnits="userSpaceOnUse"><stop stop-color="#FFE466"/><stop offset="1" stop-color="#FFAFEA"/></linearGradient><linearGradient id="paint30_linear" x1="359.881" y1="74.8" x2="401.572" y2="74.8" gradientUnits="userSpaceOnUse"><stop stop-color="#FFE466"/><stop offset="1" stop-color="#FFAFEA"/></linearGradient><linearGradient id="paint31_linear" x1="45.399" y1="143.156" x2="64.725" y2="143.156" gradientUnits="userSpaceOnUse"><stop stop-color="#75C3FC"/><stop offset=".093" stop-color="#81C2F6"/><stop offset="1" stop-color="#F0B8BD"/></linearGradient><linearGradient id="paint32_linear" x1="38.358" y1="202.9" x2="48.81" y2="225.93" gradientUnits="userSpaceOnUse"><stop stop-color="#FFE466"/><stop offset="1" stop-color="#FFAFEA"/></linearGradient><linearGradient id="paint33_linear" x1="408.421" y1="53.892" x2="414.251" y2="53.892" gradientUnits="userSpaceOnUse"><stop stop-color="#75C3FC"/><stop offset="1" stop-color="#75C3FC"/></linearGradient><linearGradient id="paint34_linear" x1="46.457" y1="91.335" x2="52.288" y2="91.335" gradientUnits="userSpaceOnUse"><stop stop-color="#75C3FC"/><stop offset="1" stop-color="#75C3FC"/></linearGradient><linearGradient id="paint35_linear" x1="73.348" y1="241.062" x2="79.178" y2="241.062" gradientUnits="userSpaceOnUse"><stop stop-color="#75C3FC"/><stop offset="1" stop-color="#75C3FC"/></linearGradient><linearGradient id="paint36_linear" x1="188.003" y1="50.977" x2="193.834" y2="50.977" gradientUnits="userSpaceOnUse"><stop stop-color="#75C3FC"/><stop offset="1" stop-color="#75C3FC"/></linearGradient><linearGradient id="paint37_linear" x1="369.107" y1="174.911" x2="374.937" y2="174.911" gradientUnits="userSpaceOnUse"><stop stop-color="#75C3FC"/><stop offset="1" stop-color="#75C3FC"/></linearGradient><linearGradient id="paint38_linear" x1="315.049" y1="173.484" x2="335.575" y2="173.484" gradientUnits="userSpaceOnUse"><stop stop-color="#75C3FC"/><stop offset=".093" stop-color="#81C2F6"/><stop offset="1" stop-color="#F0B8BD"/></linearGradient></defs></svg>