<svg xmlns="http://www.w3.org/2000/svg" width="662" height="417" fill="#e05837"><path d="M195.1 0h2.92l-1.23.44c-1.07 3.32-1.43 6.82-2.43 10.16-1.13 3.4-4.06 5.74-6.46 8.25-1.15-1.97-2.53-3.8-3.53-5.86 1-3.7 3.67-6.62 5.38-10 2.6.01 4.84-1.3 6.8-2.94L195.1 0zm9.05 18.2c3.07-2.35 5.82-5.1 8.95-7.4l3.12 3.88c2.3-1.14 4.4-3.03 7.13-2.97.03 2.66-.8 5.22-1.73 7.67l.5 2.36c-1 2.2-1.7 4.52-2.6 6.75-1.15 1.78-2.74 3.22-4.12 4.8l2.77-.27-2.25 3.2c4.03-2.28 7.58-5.3 11.7-7.43-3.5 4.46-7.95 8-12.1 11.84l1.07-.26.54 3.4-.75-1.06c-3.14 3.07-5.95 6.5-7.8 10.5l4.23-1.05c1.37.1 2.97.98 4.16-.14 3.4-2.53 6.47-5.55 10.33-7.4l-16.1 15.63c-1.28.04-2.56.13-3.82.3-.95 1.8-1.32 3.8-1.77 5.76 5.3-.2 8.28-5.04 12.32-7.73a35.22 35.22 0 01-.9 3.5c-2.8 1.23-5.55 2.62-7.64 4.9l3.6 1.75 3.18-1.17 1 2.9c1.25-.67 2.26-2.17 3.8-2.1 2.66 2.34 5.23 4.8 7.84 7.2l2-2.43.14 2.57 2.76-1.03c-.92 2.08-1.97 4.1-3.08 6.1 1.34 1.7 2.36 3.58 3 5.63l3.9-4.34-2.32-2.62 4.58-.76a120.59 120.59 0 00-.16 5.72c3.28-2.96 7.74-3.9 11.17-6.62l21.87-16.1c1.4-1.12 3.08-1.7 4.77-2.2.9-2 .8-4.2 1.04-6.34 1.36-1 3-1.54 4.52-2.22 2.52.96 5.24 2.03 7.94 1.05 3.68-.76 6.08-3.87 9.2-5.7 5.23-2.78 9.2-7.4 14.54-10.03-1.43 1.97-2.98 3.85-4.5 5.76 2.4-1.3 4.68-2.78 6.97-4.24l-3.6 5.23c1.96-1.2 3.83-2.53 5.82-3.68 2.24-1.57 5.04-.48 7.55-.75 2.34-.76 4.4-2.75 7.05-1.9-2.35 2.47-4.98 4.7-6.82 7.6 3.9-1.65 6.92-5.48 11.35-5.57l-.08 2.3c-4.32 8.8-13.9 12.92-20.34 19.86a89.21 89.21 0 01-.79 6.1c-1.13-.53-2.27-1.02-3.42-1.47-3.38 1.56-5.66 4.64-8.15 7.28-3.26 3.87-7.24 7.3-9.17 12.1 6.8-4.94 12.05-11.68 18.78-16.72l1.43 1.42c6.04-6.27 11.73-12.94 18.7-18.2 3.4-2.55 6.8-5.14 9.6-8.37 1.68-1.93 4.2-4.03 6.92-2.82.22 4.06-4.6 5.75-7.94 6.35-3.86.7-4.28 5.12-4.25 8.3 2.5-1.7 5.35-2.45 8.23-1.23-3.5 2.6-7.24 5.04-9.64 8.78 4-1.72 7.3-4.65 11.03-6.82-9.45 9.63-20.03 18.32-27.9 29.38l-2.2-1.08-2.58 1.74c-1.2 2.13-2.52 4.18-3.87 6.2l-3.4 1.8c1.58 3.02 2.65 6.26 3.86 9.44-2.2 2.4-3.86 5.17-5.38 8-1.87 2.52-4.52 4.34-6.6 6.7-.85-1.87-1.66-3.76-2.44-5.65-3.5 4.7-7.96 8.47-11.9 12.76-1.36-.08-2.72-.1-4.07-.08-.72 2.02-1.1 4.13-1.63 6.2l4.4-4-1.73 4.87-2.96-.05-2.93 6.2c-.4-1.56-.78-3.14-1.07-4.73-4.66 2.62-5.6 8.04-6.8 12.76 1.25-.74 2.53-1.44 3.8-2.16-1.37 2.14-2.72 4.3-3.86 6.55 5.7 1.46 6.75-5.5 11.56-6.75-1.26 3-3.53 5.35-5.42 7.93 2.43-1.18 4.75-2.6 6.84-4.33 8.05-6.6 15.3-14.1 23.38-20.65-.88 2.2-1.65 4.45-2.14 6.77 2.06-1.67 3.66-3.8 4.43-6.35 2.54-.42 5.23-.46 7.6-1.58.68-1.5.77-3.16 1.1-4.74 1.44.77 2.9 1.53 4.37 2.23-.26-1.6-.18-3.33-.96-4.8-1.1-1.02-2.68-1.22-4-1.8 4.45-3.7 7.82-8.84 13.22-11.3-1.5 1.96-3.57 3.36-5.26 5.14-.98 2.73-.4 5.84.52 8.54 3.03-2.2 5.93-4.7 7.86-7.95 6.4-2.85 9.45-10.75 16.77-11.9 3.14-3.6 7.16-8.3 12.5-6.4.72-1.18 1.27-2.6 2.6-3.25l19.57-11.5c3.04-1.7 6.1-3.96 9.78-3.5-4.98 3.97-11.06 6.3-15.9 10.44 6.8-2.64 12.62-7.24 19.33-10.1-2.85 3.6-7.42 5-10.65 8.15 4.97-2.03 9.58-5.27 15.13-5.54-3.78 3.1-8.4 4.95-12.1 8.16-1.9 1.57-3.72 3.48-6.32 3.68-4.8.65-7.72 4.93-11.6 7.36-4.9 3.8-11.5 5.52-14.97 11 5.9-3.2 11.44-7.04 17.2-10.5l-.83 3.4c2.47-1.2 4.87-2.5 7.3-3.8-2.08.26-3.97.4-6 .1 7.52-4.08 14.78-8.62 22.3-12.68.54 4.48-3.78 6.07-6.22 8.9l3.62-1.45c-.15 1.16-.56 2.3-1.56 2.98-4.58 4.3-10.06 7.37-15.4 10.57-3.78 3.64-8.4 6.42-11.5 10.72 1.94-.88 3.83-1.88 5.68-2.95 5.68-.3 9.88-4.35 14.33-7.37 7.6-5.28 15.36-10.34 23.43-14.87-.8 2.67-.86 6.15-3.65 7.64-3.57 2.1-6.77 4.8-10.58 6.5-5.3 2.5-10.66 5.05-15.25 8.75-3.54 3.1-8.44 4.48-11 8.67 2.54-1.62 4.92-3.46 7.3-5.3l2.42.8c4.7-2.3 8.32-6.76 13.87-7.2l.07-2.38c1.65-.75 3.32-1.44 5.04-2.03 4.7-4.3 10.8-6.58 16.4-9.43-2.7 2.62-5.77 4.78-8.5 7.35 2.54-.72 5.03-1.6 7.5-2.56l-1.96 3.9c-2.16.9-4.15 2.18-5.88 3.76 2.68-.67 5.3-1.68 7.57-3.27l3.67-.35c-3.5 9.67-13.24 14.13-21.28 19.33-1.68.83-2.4 2.55-3.1 4.18-2.83 2.53-5.42 5.36-8.6 7.46l-.46 1.77c2.84-1.62 5.57-3.43 8.1-5.5 1.9-1.6 2.7-4.05 4.32-5.9 2.3-.7 4.83-.44 7-1.56 1.93-1 3.9-2.02 6.04-2.46-3.53 2.56-7.28 5.07-9.13 9.22 1.76-.83 3.52-1.7 5.25-2.6l1.88.87c1.23-1.52 2-3.83 4.1-4.33 1.96-.05 3.87.55 5.77.96-2.65 1.13-5.56 1.93-7.62 4.08h4.57c-2.34 2.85-4.76 5.65-6.8 8.73 1.98-.95 3.92-2.02 5.8-3.2.73-1.34 1.9-2.25 3.22-2.97-1.27 2.32-2.2 4.8-2.27 7.47 1.97-.78 3.93-1.58 5.94-2.24-1.56 4.7-6.07 7.43-8.15 11.82 3.1-2.3 5.94-4.96 9.4-6.75-.53 3.33-1.9 6.53-4.67 8.6-2.53 1.88-3.9 4.7-4.14 7.82 3.55-3.17 6.2-7.25 10-10.14 2.08-1.6 4.06.94 5.84 1.82-1.6 2.92-3.16 5.87-4.34 9l3.88-1.73c-2.1 4.65-5.6 8.42-8.7 12.38 1.4-.45 3.26-.14 4.2-1.52 3.95-4.6 9.26-7.77 14.5-10.7 5.3-4.7 11.53-8.22 17.48-12.04l-2.06 3.04a15.07 15.07 0 001.47 3.4c1.2-.4 2.44-.82 3.7-1.04-2.1 5.93-8.9 8.22-12.04 13.55-2.26.36-5 .2-6.44 2.35-1.65 2.08-3.67 3.8-5.96 5.13-2.76 1.28-1.58 5.24-3.96 6.8-1.54 1.17-2.98 2.5-3.75 4.3 3.37-1.18 6.6-2.8 9.34-5.1.2 1.9.35 3.8.62 5.68l-3.1 2.54c3.42-.62 6.67-1.86 9.72-3.53-6.02 6.36-14.48 10.24-19.2 17.8-4.82.95-8.4 4.6-11.34 8.3 4.14-1.48 7.5-4.52 11.72-5.83.4 2.37 1.1 4.7 2.74 6.55-1.48 2.77-2.9 5.8-5.68 7.5-3 1.9-6.14 3.6-8.92 5.84 1.52-.64 3.02-1.34 4.54-2l-1.08 3.6c6.37-5.96 14-10.35 22.07-13.6l-2.18 4.5c-1.3 2.74-4.2 4.12-6.2 6.26 3.3-1.42 6.4-3.26 9.6-4.87.2 5.14-4.82 7.18-8.33 9.68-3.5 2.47-8.16 2.68-11.3 5.74-2.86 2.1-2.64 5.93-4.15 8.83l-3.3-2.45a29.3 29.3 0 00-.99 2.91c-.03 2.6 3.16 3.15 4.82 4.5 4-6.98 11.32-10.92 16.45-16.9 2.3-2.65 5.4-4.4 8.66-5.6 3.26-7.3 9.58-12.47 15.95-17.02 1.48-1.48 1.86-3.7 2.85-5.5 1.37 2.23 1.64 4.83 1.9 7.37-2.22 1.43-4.53 3.06-4.4 6.07 3.9-1.86 6.17-5.62 9.14-8.56l.62-1.82c1.33-.88 2.6-1.82 4-2.6l1.25 2.17c2.4-.88 4.62-2.2 5.04-4.96 4.1-2.78 6.46-7.32 10.47-10.2 3.45-3.38 8.45-6.13 9.18-11.34-3.95 2.3-7.5 5.22-11.4 7.57l-1.67-3.47c-1.6 2-2.35 5.2-5.25 5.7l-.88-2.47c1.5-3.32 5.04-4.97 8-6.78-1.77.07-3.54.15-5.3.08-1.34-3.67 2.96-2.33 5.1-2.67 2.9-1.72 6.6-3.17 6.18-7.25l4.33 1.12-1.6-5.7 3.53.01.34 2.65c1.42-.43 3.1-.8 3.72-2.32-.13-2.2-2.5-5.04.12-6.53 5.3-4.06 9.68-9.7 16.26-11.8 5.23-1.8 8.77-6.46 13.9-8.5a64.58 64.58 0 005.39.23 38.72 38.72 0 013.86 3.93l2.9 1.82 6.83-3.03-.25 3.27 6.27 1.18c-1.27.98-2.63 1.82-4 2.6l1.37 3.58 2.35-3.42 2.84 1.5-.74 3.64c1.94.7 3.95 1.16 6 1.48-.18 1.85-.9 3.77-.15 5.58 1.3.17 2.65.2 3.98.25l1.23-1.9c.05 2.02.25 4.06 1.18 5.9 1.1-.8 2.23-1.56 3.38-2.3a78.31 78.31 0 01.29 4.06l2.7 4.1-2.1 2.5a163 163 0 006.2-.98l-2.9 2.38 1 5.06-1.98-1.13c-1.26 4.65-6.34 6.03-8.36 10.1 2.02.66 3.98 1.9 6.18 1.9 2.58-2.08 4.6-4.8 7.22-6.83-2.86 6.36-9.52 9.58-13.38 15.2 2.16-.96 4.27-2.02 6.43-3-1.33 2.36-2.88 4.6-4.85 6.46l-2.5-1.66c-1.28 1.27-2.44 2.65-3.27 4.25-2.7 2.43-6.13 3.7-9.2 5.52-3.13 3.23-6.33 6.46-8.9 10.16 2.82-.4 5.67-.36 8.5-.52 1.92-.53 3.1-2.4 4.63-3.6l.43 4.24c5.5-2.6 8.84-8.08 14.05-11.16L572 213.3l2.08 2.83c3.57-2.62 6.68-5.88 10.6-8.02-1.83 3.13-4.5 5.6-6.7 8.48 1.73 1.13 3.6.6 5.37-.08-4.15 4.42-8.43 8.72-12.8 12.93-2.8 2.48-3.32 6.48-5.87 9.15-2.63 2.83-5.78 5.14-8.34 8.04 5.23-2.2 8.73-6.82 12.92-10.43 7.25-6.5 15.3-12 22.57-18.46 9.2-8.4 17.94-17.33 27.02-25.87 1.42-1.73 3.65-1.18 5.58-1.02-10.47 10.43-21.26 20.64-33.12 29.5-6.17 4.6-10.85 10.8-16.14 16.3 2.4-.28 3.93-2.37 5.7-3.8l26.6-23.5c6.96-5.98 13.44-12.66 21.6-17.06 1.1 1.44 2.3 2.83 3.2 4.4-1.47 2.35-3.27 4.53-4.02 7.25 2.68-1.74 4.66-4.27 6.73-6.64 2.68 2.7 5.75 5.1 9.5 6.1 4.56 1 7.28 5.37 11.86 6.33.86 4.15-2.08 7.24-4.05 10.5 3.55-2.4 6.62-5.4 9.8-8.26v.27l-2.65 4.2 1.8 1.55c-2.07 3.22-4.43 6.27-7.26 8.85-2.92 2.85-6.83 4.86-8.5 8.8 3.25-.83 5.6-3.28 8.24-5.2-4.12 6.9-11.34 10.95-16.5 16.93l-.54-2.46c-9.57 7.67-18.06 16.6-27.13 24.83l-.03 3.35c2-.03 4.23-.8 6.05.38 2.85 1.84 4.46 4.98 7 7.16 1.68 1.2 3.9 1.13 5.7 2.1 3.05 1.75 6.05 3.6 8.96 5.6a35.94 35.94 0 001.2 3.44c2.38 1.58 6.65.73 7.56 4.14l-.08 3.94 3.4-.42-2.72 3.47.66 2.88-4.05 3.37-.8-2.22c-3.42 4-6.84 8.07-11.14 11.14-10 6.4-18.6 14.7-27.8 22.18-6.52 5.25-12.64 11.07-19.72 15.58 2.9-3.67 7.98-5.68 9.05-10.6 3.8-3.78 8.64-6.32 12.1-10.46 5.18-4.44 10.83-8.48 14.86-14.1-5.38 3.5-10.26 7.7-14.7 12.32-1.18 1.27-2.7 2.1-4.2 2.97-3.56 1.94-5.88 5.4-8.57 8.3-3.13.7-5.67 2.68-7.56 5.22-2.27 3.08-6.26 4.6-7.72 8.3-1.2 2.86-3.63 4.86-6.13 6.55 1.4-2.1 2.95-4.08 4.28-6.2-4.46 2.82-7.95 7-12.7 9.38.66-2.75 3.1-4.2 5.14-5.85l-.98-1.9c3.04-1.78 5.63-4.26 7.28-7.4-4.35 1.8-7 5.9-10.74 8.57-4.32 3.84-8.73 7.62-13.75 10.53 1.62-2.85 3.77-5.35 5.38-8.2-4.74 3.4-8.14 8.5-13.46 11.13-2.8 1.56-5.08 3.85-7.64 5.75 1.75-3 5.42-5.3 4.82-9.2l1.76-3.45c-3.38 2.57-6.33 5.66-9.68 8.26 4.27-7.15 7.45-15 13.2-21.18-3.22 2.44-5.6 5.8-8.85 8.2-4 3-8.44 5.54-11.46 9.6-2.97 4-6.4 7.68-10.54 10.53l3.94-5.93c-9.48 5.7-17.22 13.74-25.4 21.07a64.34 64.34 0 011.15 2.83c-2.1 3.5-6.08 5.07-9 7.73-2.43 2.06-4.46 4.77-7.53 5.92-1.9.25-3-1.44-4.16-2.57-3.17-3.46-7.27-6-9.88-9.98-2-3.07-4.87-5.5-8.42-6.5-7-8.98-14.55-17.66-23.33-24.93l-.65-2.32-4.84-3.37c-4.38 2.63-8.4 5.82-11.92 9.53-5.9-4.88-10.34-11.2-15.42-16.87-2.66-3.3-5.78-6.22-8.15-9.74.43-4.12 3.8-7.1 5.97-10.4-4.3.9-7.07 4.3-10.22 7-2.6-.06-4.24-3.03-6.82-3.2-1.26.92-2.3 2.1-3.4 3.18l-4.97-3.14c-2.28 2.12-4.74 4.04-7.23 5.9l1.27 1.8-1.9 1.62-1.5-1.78c-1.74 2.37-4.15 4.02-6.8 5.2l1.22 1.83c-2.84 1.08-5.28 2.86-7.3 5.12.72 1.42 3.12 2.85 1.5 4.5-1.8.35-2.97-.97-4.1-2.1a52.09 52.09 0 00-2.42-.34c.93 2.1 2.64 4.44 1.36 6.78-.95 2.2-3.56 2.66-5.52 3.56-2.2 2.47-3.36 5.52-4.3 8.64-1.2.6-2.5.94-3.77 1.36-2.07 2.64-4.13 5.5-2.83 9.04l-2.8 2.26c-.93-1.4-1.88-2.76-2.88-4.1l-1.28 2.85 2.54 1.54c-1.28 3-4.48 4.26-6.76 6.33-4.7 6.1-12.2 9.24-16.53 15.7h-1.72c3.54-5.25 8.82-9 12.22-14.36a94.5 94.5 0 00-4.41 3.34c1-2.82.97-5.83 1.38-8.75 3.08 2.2 5.42-.32 6.66-2.98 2.1-.44 3.23-2.06 3.06-4.18-1.98-1.5-3.62.5-4.93 1.78-2.16.1-4.54-.56-6.5.63-5.24 3.24-9.98 7.22-15.06 10.7 1.9-4.8 5.97-8.15 9.7-11.5-.26-1.67-2.03-1.6-3.1-.74-4.4 2.9-9.6 4.08-14.42 6.07l-1.56-2.58c-1.47.5-2.88 1.13-4.35 1.62l3.33-3.65c-1.26-1.92-2.7-3.34-5.1-2.17-.2 1.64.22 3.55-.88 4.97-2.72.82-5.3-.25-6.86-2.55l-3.2-1.2 2.62-2.45-2.7-2.52c-3.97 2.7-7.74 5.64-11.47 8.64.2-3.5 4.03-4.73 6.4-6.58-.57-2.13-1.03-4.3-1.42-6.45 1.7-.02 3.43.22 5.14.01.46-1.9.8-3.8 1.18-5.7-3.33 2.74-7.06 4.9-10.78 7.07l1.32-3.67-8.33 7.54-.2-4.45c3.96-.95 6.37-4.28 8.88-7.17 2.34-2.83 6.17-4.67 6.82-8.6-1.2.34-2.37.7-3.55 1.08l-.62-3.38-2.12 2.42c-5.77.47-8.67 6.2-12.6 9.66-2.8-.8-3.45-3.62-4.05-6.1l-2.95.43c-1.37 2.13-3.43 3.56-5.8 4.36 1.34-1.23 2.72-2.43 4.1-3.6-2.98-1.55-6.3-1.56-9.57-1.53l1.38-2.58c-1.52-.68-3-1.44-4.6-1.87-2.73 1.13-4.7 3.76-3.9 6.8-2.03 3.08-3.15 6.64-5.1 9.76-3.4-1 .34-4.74.8-6.76l-3.1-.06-.33-3.05c-2.14 1.37-4.26 2.75-6.47 4l.97-3.44-1.67-2.44 4.6-.15c-1.45-.77-2.94-1.45-4.43-2.12l-.7-2.47c-2.92-.48-5.8-1.15-8.72-1.52-3.56 1.85-6.28 4.95-9.84 6.82-2.95 1.54-4.83 4.4-7.53 6.28-2.03 1.4-4.5 1.92-6.63 3.13-1.86 1.2-3.47 2.73-5.33 3.93 3.48-5.18 8.7-8.75 13.33-12.8l-.9-1.95c-1.57 3.95-6.02 3.6-9.4 4.95 2.27-1.8 4.56-3.6 6.74-5.53-1.5.55-2.98 1.2-4.52 1.64l-.35-3.33-3.8 1.94 1.3-2.5c-.7-.66-1.4-1.3-2.1-1.9l1.2-3.54c-1.17-.03-2.35-.22-3.5-.02-1.6 1-3 2.65-5.1 2.24 2.65-2.83 6.05-4.9 8.3-8.1-5.1.5-9.6 3.34-13.1 6.97-4.58 4.86-11.02 7.44-15.45 12.46-1.37 1.33-2.5 3.04-4.28 3.84-2.58-.2-6.53-.34-5.8-4.07l-2.4 1.6c-.47-2.17-.65-4.4-.03-6.55l-3.17-.96-.05-2.9-2.74.82c-1.02-2-1.87-4.08-2.67-6.16l2.8-2.56c-1.84-1.25-3.68-.43-5.4.55l-1.03-3.33c4.14-.7 5.98-4.76 7.85-8 1.6-3.42 3.72-6.53 5.77-9.68l-2.35-1.5c.54-3.45 4.87-4.8 6.24-8-4.57 3.16-8.77 6.9-12.36 11.14.14 1.97.22 3.95.28 5.94-6.1-4.13-7.12-12.22-12.36-17.08-3.78-1.65-7.9.38-11.37 1.92-10.62 5.5-19.95 13.2-28.36 21.65-6.16 4.3-12.06 9.1-16.98 14.8l-2.3-.6c3.66-3.2 7.13-6.66 9.9-10.68-4.58 2.1-9.4 4.57-12.32 8.83-1.28 1.7-.13 3.75.16 5.6-1.46.3-2.92.65-4.37 1l.06-3.67c-3.44 2.23-6.6 4.83-9.94 7.22l-3.1-3.75 2.83-1.5c-5.13-2.55-7.67-7.87-10.57-12.5-1.38-2.64-5.2-2.68-6.38-5.46-1.05-2.32-1.77-4.77-2.7-7.13-1.9-.92-4.65-1.18-5.36-3.5-.85-2.4-1.97-4.68-3.84-6.45v-.62c.78-3.07 1.44-6.4 3.75-8.73 4.07-4.4 8.6-8.32 12.65-12.72l-3.64-.64c3.07-7.18 11.84-9.16 15.36-15.97.47.14.93.3 1.38.53 3.37-3.8 7.53-6.77 10.8-10.65 6.58-7.3 15.9-11.3 22.7-18.37 3.2-2.67 6.08-5.9 9.97-7.6.03-2.3-1.07-4.95.2-7.04 2.57.34 5.16 1.28 7.7.27l.24 2.52c.85-2.72 1.6-5.5 3.05-7.97 1.55-2.63.14-6.12-2.2-7.77-1.3.4-2.4 1.2-3.45 2-4.9 4.05-10.9 6.4-16.16 9.92-2.33 1.95-4.97-.43-7.23-1.23 2.84-1.96 5.98-3.6 8.2-6.33-2.66-.27-4.58 1.3-6.13 3.18-.48-2.2-1.07-4.36-1.72-6.5-2.94 3.3-6.95 5.22-11.36 5.57 2.3-3.68 4.4-7.64 8-10.24l-4.98 1.5c1.52-1.74 3.12-3.4 4.55-5.2-4.13 1.6-7.7 4.27-11.03 7.12-.56 1.8-.4 4.1-1.92 5.43-2.17.58-4.42.77-6.62 1.2-.92-3.53-2.5-7.96.87-10.72 2.54-2.48 5.68.26 8.12 1.42 2.73-2.9 5.27-5.95 7.72-9.06l-4.36 2.23c1.37-1.62 2.78-3.2 4.2-4.76 1-.6 2-1.26 2.95-1.94-1.1-1.57-2.4-2.95-3.67-4.37l3.2-.35-.46-5.8c-4.76 3.76-10.13 6.63-14.87 10.4.3-1.63.7-3.23 1.08-4.84l3.4.65-1.1-2.42 5.2-4.64a80.07 80.07 0 00-.62-1.34c-1.2 1.04-2.24 2.22-3.44 3.26l-.13-3.4c-4.64 4.06-10.37 6.55-15.05 10.58 2.36-3.24 5.1-6.2 7.28-9.56-3.9 2.76-7.64 5.8-11.86 8.07 4.16-5.64 9.22-10.53 14.05-15.6 1.63-1.57 2.72-3.6 3.36-5.77-4.5.98-6.24 5.74-10.1 7.78 2.04-3.07 4.66-5.66 6.95-8.52l-2.25-2 7.28-9.36c-.87-.67-3.86-2.07-1.4-2.8 3.8-1.33 7.58-3.1 10.1-6.37 4.85-5.83 10.85-10.76 14.92-17.2 1.23-1.52-1.03-2.56-1.74-3.73-2.3.85-4.64 1.6-6.96 2.42L52.45 149l4.1.2c.5-3.12-.3-6.16-3.53-7.3l.52 4.08c-2.7 2.23-4.9 4.97-6.4 8.13-.34 2.16-3.08 1.45-3.57-.2 1.3-2.8 3.9-4.63 5.84-6.95-4 .88-6.1 5.24-10.33 5.47-2.67 2.23-6.86 4.32-9.8 1.28-3.3-3.55 4.7-5.1 3.22-8.82-.44-2.43-3.3-2.36-5.1-3.1-1.05-1.9-2.27-3.8-4.62-4.18 1.35 2.58 3.45 4.7 4.63 7.4.9 3.26-.28 7.3-3.37 9-3.34-.58-6.72-1.85-9.32-4.07-1-2.77 2.32-4.64 3.52-6.8 1.44-1.4.42-3.4.35-5.1.44-1.54 1.07-3.07 1.12-4.7-.92-2.7-4.27-2.36-6.5-3.1-2.1-.36-3.2-2.4-4.56-3.8 1.36-1.6 2.6-3.36 2.4-5.58.01-4.6 2.35-8.7 4.85-12.42l2.27 2.95 3.22-4.76c.95 2.47 1.48 5.08 2.6 7.47 3.22 2.53 3.23-3.07 5.26-4.45 3.35-1.02 6.8.42 9.4 2.5-1.3 4.37-.17 9.02 3.38 11.94-.03-3.64-.32-7.32-1.64-10.75-.6-2.02-1.87-4.12-.94-6.25 1.4.57 2.7 1.3 4.03 2 1.96-1.98 4.1-3.78 5.9-5.9 1.02-1.96 1.03-4.3 1.65-6.4l2.5 2.84c2.06-2.1 4.65-4.5 4.6-7.67-.86-1.7-2.22-3.1-3.4-4.6 2.1-.4 3.96-1.4 5.5-2.88 1.18 1.6 2.38 3.2 3.63 4.77 2.3-1.9 4.95-3.2 7.8-4.04 1.92-2.05 3.2-4.62 4.86-6.88 2.08-3.23 5.42-5.5 7.08-9.03 1.3-2.44 1.82-5.24 3.36-7.54 2.92-1.87 5.85.6 8.03 2.4l3-2.83c-1.3-2.6-.96-5.27 1.6-6.8l1.8 3.73a183.04 183.04 0 005.63-3.54l-.4 2.9c2.37.26 4.74.57 7.08.98l1.3-1.77c7.08-2.43 11.43-8.92 17.78-12.53L131 43.12c3.12-2.28 6.8-4 9.26-7.06 1.2-3.66.57-8.45 4.24-10.86 2.98-.77 6.1-1.22 8.14-3.8 2.2-2.5 5.3-.8 7.08 1.23l4.65-3.53-4.1-4.7c2.13 1.28 4.2 2.7 6.47 3.74a15.77 15.77 0 01-.16 1.82c-3.38 1.56-6.45 3.72-9.13 6.3 3.68-.3 6.65-2.6 9.76-4.34-2.25 2.33-4.65 4.5-6.6 7.1 3.38-2.26 6.45-4.94 9.8-7.24l.78 2.6c1.66-.87 3.35-1.68 5.07-2.45l.54 3.77c2.48-1.68 4.66-3.74 6.74-5.9 1.25-1.06 2.4.62 3.58.97 1.6-1.42 3.07-3.28 5.36-3.5.4-2.64 3.07-1.24 4.8-1.18-2.72 3.08-5.7 5.95-7.84 9.5 1.92-1.16 3.7-2.53 5.57-3.77 2.8-1.94 6.58-1.58 9.26-3.74M96.05 64.1l.42 3.07c3.72-2.14 8.4-4.7 8.67-9.54-3.46 1.5-6.14 4.2-9.1 6.47m273.82 30.65c2.98-1.58 5.98-3.26 8.28-5.77-3.37.88-6.16 3.05-8.28 5.77m-9.24 4.28c3.12.4 5.2-1.96 7.26-3.88-2.75.6-5.9 1.04-7.26 3.88m-116 57.47a49.64 49.64 0 01-5.63 11.35c3.62.64 4-3.5 6.95-4.34l.9-2.37-2.2-2.16 2.58-2.35 2.5 1.53c2.1-2.07 4.67-4.17 4.37-7.46-3.3 1.7-6.36 3.8-9.46 5.8m128.06-.3c2.65-1.05 4.6-3.16 6.37-5.32-2.94.5-4.7 3.1-6.37 5.32m-118.56 7.85c-1.7 2.73-5.08 1.46-7.4.47-.46 1.22-1.4 2.1-2.37 2.92.15.3.43.94.57 1.25-.84 1.04-2.05 1.95-2.22 3.38-.2 2.36-2.24 3.8-3.52 5.6 1.98-.77 3.88-1.7 5.88-2.42l1.77 2.4c.7-1.6 1.24-3.27 2.3-4.67 1.62-.38 3.28-.53 4.92-.8.26-2.47 1.2-4.77 2.24-7l1.74 1c1.68-2.22 2.9-5.26 6.07-5.56l.7-2.65 2.35-1.18-1.5-5.1c-1.67 5.9-8.14 7.7-11.5 12.33m107.9-.25c-3.3 2.14-2.9 6.5-3.7 9.86 2.25-1.3 4.35-2.84 6.16-4.7l-2.37-1.53c3.3-3.5 7.64-6.04 10.1-10.3-3.36 2.28-6.93 4.24-10.2 6.66m76.3-3.22c.1 1.4-2.15 3.74.1 4.4l-.14 2.1c1.7-2.1 3.47-4.2 5.75-5.72l-.92-1.34-4.8.56M260.9 170.2c1.3-.7 3.18-.9 3.77-2.47.43-1.58.22-3.24.3-4.86-1.37 2.44-2.84 4.82-4.08 7.33m96.82 6.8c3.82-1.68 7.6-4 9.6-7.8-3.58 2.07-7.02 4.53-9.6 7.8m-9.78.14c1.73 1.5 3.5-1.26 5.25-1.64l-1.6 3.96c3.12-1.95 5.23-6.35 3.38-9.82-2.17 2.63-5.95 4.17-7.03 7.5m149.14-.12c.2 1.06-.3 3.3 1.5 2.77 2.06-.85 2.93-3 2.46-5.12 3.16 1.23 3.88-3.03 5.12-5-3.55 1.7-6.37 4.57-9.07 7.36m-244.24-.2l1.56 2.43 3.5-2.2-2.8-.52c1.7-1.5 3.36-3.03 4.9-4.7-2.73 1.14-5.04 3-7.16 5m86.06 6.06c2.96-.85 6.07-1.5 8.7-3.2.97-1.34-.72-2.1-1.4-3-2.36 2.14-4.95 4.02-7.3 6.2m229.84-3.8c-.55 2.04-1.07 4.43 1.32 5.47 1.45-2.1.4-4.04-1.32-5.47m-151.14 6.3l3.64-1.4c-3.12 2.7-3.1 6.76-3.34 10.52 1.3-.94 2.58-1.93 3.83-2.94l1.56 2.76c1.42-3.84-.77-7.63-.78-11.5-.6-.82.48-3.76-1.44-2.68-1.36 1.43-4.72 3.04-3.47 5.23m-2.38 28.42c3.26 1.04 5.72-2.12 5.95-5.07-2.5.56-6.47 1.85-5.95 5.07m-13.7 8.77c1.83.57 3.76.2 5.64.06-.66-1.24-1.05-2.68-2.1-3.64-1.7.01-4.34 1.65-3.53 3.58M441.3 227c-1.02 2.87-2.28 5.68-4.25 8.05l.17 4.62c3.82-3.04 5.6-7.66 7.7-11.9l-3.62-.77m-12.54 28.3c-1.95.34-3.23 1.7-4.1 3.4l2.22 1.08c.76-1.1 1.52-2.2 2.22-3.34 6.2-6.3 14.33-10.74 19.07-18.46-8.06 3.66-14.05 10.5-19.4 17.33m-.18-12.53l1.8 3.46-4.3-1.55-3.5 5.54c2.48 1 5.56 1 7.5-1.1 3.22-1.96 3.2-6.1 4.03-9.36-2.28.1-4.3 1.05-5.54 3m-53.88 5.32c2-.54 3.96-1.18 5.96-1.72l-.04-3.44c-2.25 1.38-4.33 3.04-5.92 5.16m22.2 7.5l2.8.3c1.6-2.3 3.65-4.38 4.55-7.1-2.97 1.4-6.97 3.1-7.35 6.8m14.73 17.13c1.5-.12 3-.15 4.5-.3 1.12-3.04 2.88-5.75 4.74-8.38-3.64 2.24-6.56 5.38-9.23 8.68m17.17 2.42c-3.26 1.64-4.5 5.38-6.6 8.13 1.93-.74 4-1.56 4.36-3.92l1.3 2.5c2.22-1.32 3-3.58 2.27-6.05.64-2.38 3.55 1.23 4.5-.83l-1.16-2.78 2.83.8c-1.18-2.43-2.97-4.44-5.54-5.4-1.38 2.3-1.72 4.93-1.96 7.56m-26.33 6.38c-2.8 3.95-7.26 6.46-9.7 10.7 3.6-2.07 6.6-5.15 8.58-8.8 2.9.22 3.52-2.67 4.3-4.8-1.3.68-2.4 1.68-3.2 2.9M130.83 326.9c3.36-2.63 7.87-5.1 8.37-9.8-2.63 3.4-6.12 6.1-8.37 9.8m3.08 6.87c2.9-2.93 6.36-5.42 8.46-9.04-3.82 1.88-6.34 5.48-8.46 9.04m448.85 11.62c3.74-1.7 6.72-4.63 9.54-7.53-3.33 2.13-8.63 3.13-9.54 7.53m-404.83 4.42l2.2.8c-1.7 2.4-5.4 2.8-7.34 5.2 3.2-1.63 6.76-2.45 9.95-3.97.8-2.36.8-4.9 1.03-7.34-2.52 1.06-4 3.4-5.84 5.3m-32.62 8.34c3.48-2.18 4.13-6.5 6.78-9.42-5.02.24-5.5 5.7-6.78 9.42m377.44 9.22c4.7-2.95 8.75-6.88 12.15-11.25-4.97 2.6-8.83 6.8-12.15 11.25m-399.9-.02c2.22-.1 3.26-1.6 3.5-3.7 2.93 1 2.8-2.96 3.62-4.72-3.02 2.18-5.48 5.05-7.1 8.4m76.57-7.62c-1.92.36-1.9 2.72-2.68 4.13l6.3-4.9a39.62 39.62 0 00-3.63.77m8.63 5.54l1.84-2.18c1.62-.5 3.28-1.17 3.33-3.16-2.63.28-8.02 2.07-5.17 5.34m-81.1 5.77l2.82-.94a21.84 21.84 0 01.5-3.8c1.5-1.4 3.36-2.52 4.1-4.55-4.57.86-6.13 5.44-7.4 9.3m85.72-2.63c-1 1.37-.3 3.2-.36 4.77 1.86-1.77 3.5-3.83 3.98-6.42-1.18.52-2.82.48-3.62 1.65m124.2-.05c1.28 2.95 5.24 1.4 6.4-.97-2.12.33-4.67-.7-6.4.97m-68.8 18.8c2.5-.5 5.1-1.36 6.42-3.74l-4.8-.25c-1.14 1.06-1.8 2.38-1.63 4z"/><path d="M217.6 40.15l5.78-4.17-4.47 5.28-1.3-1.1zM426.56 208.9c2.26-1.43 4.6-4.57 7.47-2.55-1.52 2.75-4.83 2.12-7.47 2.55z"/></svg>